<svg id="visual" viewBox="0 0 1357.93 200" width="1357.93" height="200" xmlns="http://www.w3.org/2000/svg" xmlns:xlink="http://www.w3.org/1999/xlink" version="1.1"><path d="M0 176L17.3 175C34.7 174 69.3 172 104.2 161.5C139 151 174 132 208.8 134.3C243.7 136.7 278.3 160.3 313.2 163.3C348 166.3 383 148.7 417.8 145.3C452.7 142 487.3 153 522.2 160.2C557 167.3 592 170.7 626.8 168.5C661.7 166.3 696.3 158.7 731.2 155.7C766 152.7 801 154.3 835.8 154.5C870.7 154.7 905.3 153.3 940.2 149.7C975 146 1010 140 1044.8 140.2C1079.7 140.3 1114.3 146.7 1149 147.2C1183.7 147.7 1218.3 142.3 1253.2 139.5C1288 136.7 1323 136.3 1340.5 136.2L1358 136L1358 0L1340.5 0C1323 0 1288 0 1253.2 0C1218.3 0 1183.7 0 1149 0C1114.3 0 1079.7 0 1044.8 0C1010 0 975 0 940.2 0C905.3 0 870.7 0 835.8 0C801 0 766 0 731.2 0C696.3 0 661.7 0 626.8 0C592 0 557 0 522.2 0C487.3 0 452.7 0 417.8 0C383 0 348 0 313.2 0C278.3 0 243.7 0 208.8 0C174 0 139 0 104.2 0C69.3 0 34.7 0 17.3 0L0 0Z" fill="#2fb1b1"></path><path d="M0 87L17.3 96.3C34.7 105.7 69.3 124.3 104.2 125.2C139 126 174 109 208.8 100.2C243.7 91.3 278.3 90.7 313.2 98.7C348 106.7 383 123.3 417.8 131.7C452.7 140 487.3 140 522.2 130.8C557 121.7 592 103.3 626.8 103.8C661.7 104.3 696.3 123.7 731.2 125.5C766 127.3 801 111.7 835.8 102.3C870.7 93 905.3 90 940.2 88.8C975 87.7 1010 88.3 1044.8 96.7C1079.7 105 1114.3 121 1149 129.2C1183.7 137.3 1218.3 137.7 1253.2 141.5C1288 145.3 1323 152.7 1340.5 156.3L1358 160L1358 0L1340.5 0C1323 0 1288 0 1253.2 0C1218.3 0 1183.7 0 1149 0C1114.3 0 1079.7 0 1044.8 0C1010 0 975 0 940.2 0C905.3 0 870.7 0 835.8 0C801 0 766 0 731.2 0C696.3 0 661.7 0 626.8 0C592 0 557 0 522.2 0C487.3 0 452.7 0 417.8 0C383 0 348 0 313.2 0C278.3 0 243.7 0 208.8 0C174 0 139 0 104.2 0C69.3 0 34.7 0 17.3 0L0 0Z" fill="#51b58d"></path><path d="M0 92L17.3 98.5C34.7 105 69.3 118 104.2 117.8C139 117.7 174 104.3 208.8 104.3C243.7 104.3 278.3 117.7 313.2 117C348 116.3 383 101.7 417.8 91.8C452.7 82 487.3 77 522.2 71.2C557 65.3 592 58.7 626.8 63.7C661.7 68.7 696.3 85.3 731.2 93.3C766 101.3 801 100.7 835.8 103.5C870.7 106.3 905.3 112.7 940.2 106.2C975 99.7 1010 80.3 1044.8 79.8C1079.7 79.3 1114.3 97.7 1149 105.2C1183.7 112.7 1218.3 109.3 1253.2 109C1288 108.7 1323 111.3 1340.5 112.7L1358 114L1358 0L1340.5 0C1323 0 1288 0 1253.2 0C1218.3 0 1183.7 0 1149 0C1114.3 0 1079.7 0 1044.8 0C1010 0 975 0 940.2 0C905.3 0 870.7 0 835.8 0C801 0 766 0 731.2 0C696.3 0 661.7 0 626.8 0C592 0 557 0 522.2 0C487.3 0 452.7 0 417.8 0C383 0 348 0 313.2 0C278.3 0 243.7 0 208.8 0C174 0 139 0 104.2 0C69.3 0 34.7 0 17.3 0L0 0Z" fill="#86b463"></path><path d="M0 85L17.3 84.7C34.7 84.3 69.3 83.7 104.2 83.7C139 83.7 174 84.3 208.8 86.5C243.7 88.7 278.3 92.3 313.2 89.5C348 86.7 383 77.3 417.8 66.3C452.7 55.3 487.3 42.7 522.2 38.7C557 34.7 592 39.3 626.8 47.5C661.7 55.7 696.3 67.3 731.2 65.7C766 64 801 49 835.8 45.3C870.7 41.7 905.3 49.3 940.2 54.2C975 59 1010 61 1044.8 58.8C1079.7 56.7 1114.3 50.3 1149 48C1183.7 45.7 1218.3 47.3 1253.2 53.8C1288 60.3 1323 71.7 1340.5 77.3L1358 83L1358 0L1340.5 0C1323 0 1288 0 1253.2 0C1218.3 0 1183.7 0 1149 0C1114.3 0 1079.7 0 1044.8 0C1010 0 975 0 940.2 0C905.3 0 870.7 0 835.8 0C801 0 766 0 731.2 0C696.3 0 661.7 0 626.8 0C592 0 557 0 522.2 0C487.3 0 452.7 0 417.8 0C383 0 348 0 313.2 0C278.3 0 243.7 0 208.8 0C174 0 139 0 104.2 0C69.3 0 34.7 0 17.3 0L0 0Z" fill="#beab46"></path><path d="M0 0L17.3 1C34.7 2 69.3 4 104.2 4.2C139 4.3 174 2.7 208.8 8.8C243.7 15 278.3 29 313.2 38.3C348 47.7 383 52.3 417.8 45.8C452.7 39.3 487.3 21.7 522.2 20.5C557 19.3 592 34.7 626.8 38.3C661.7 42 696.3 34 731.2 32.2C766 30.3 801 34.7 835.8 38.8C870.7 43 905.3 47 940.2 47.8C975 48.7 1010 46.3 1044.8 47.2C1079.7 48 1114.3 52 1149 46.5C1183.7 41 1218.3 26 1253.2 25.2C1288 24.3 1323 37.7 1340.5 44.3L1358 51L1358 0L1340.5 0C1323 0 1288 0 1253.2 0C1218.3 0 1183.7 0 1149 0C1114.3 0 1079.7 0 1044.8 0C1010 0 975 0 940.2 0C905.3 0 870.7 0 835.8 0C801 0 766 0 731.2 0C696.3 0 661.7 0 626.8 0C592 0 557 0 522.2 0C487.3 0 452.7 0 417.8 0C383 0 348 0 313.2 0C278.3 0 243.7 0 208.8 0C174 0 139 0 104.2 0C69.3 0 34.7 0 17.3 0L0 0Z" fill="#f4994e"></path></svg>