<svg id="visual" viewBox="0 0 1357.93 200" width="1357.93" height="200" xmlns="http://www.w3.org/2000/svg" xmlns:xlink="http://www.w3.org/1999/xlink" version="1.1"><path d="M0 55L25.2 63.3C50.3 71.7 100.7 88.3 151 89.3C201.3 90.3 251.7 75.7 302 67C352.3 58.3 402.7 55.7 453 52.2C503.3 48.7 553.7 44.3 603.8 52.3C654 60.3 704 80.7 754.2 87.3C804.3 94 854.7 87 905 79.2C955.3 71.3 1005.7 62.7 1056 64.5C1106.3 66.3 1156.7 78.7 1207 82.8C1257.3 87 1307.7 83 1332.8 81L1358 79L1358 201L1332.8 201C1307.7 201 1257.3 201 1207 201C1156.7 201 1106.3 201 1056 201C1005.7 201 955.3 201 905 201C854.7 201 804.3 201 754.2 201C704 201 654 201 603.8 201C553.7 201 503.3 201 453 201C402.7 201 352.3 201 302 201C251.7 201 201.3 201 151 201C100.7 201 50.3 201 25.2 201L0 201Z" fill="#f4994e"></path><path d="M0 135L25.2 129C50.3 123 100.7 111 151 101C201.3 91 251.7 83 302 91.2C352.3 99.3 402.7 123.7 453 128.8C503.3 134 553.7 120 603.8 107C654 94 704 82 754.2 77C804.3 72 854.7 74 905 77C955.3 80 1005.7 84 1056 86.5C1106.3 89 1156.7 90 1207 95C1257.3 100 1307.7 109 1332.8 113.5L1358 118L1358 201L1332.8 201C1307.7 201 1257.3 201 1207 201C1156.7 201 1106.3 201 1056 201C1005.7 201 955.3 201 905 201C854.7 201 804.3 201 754.2 201C704 201 654 201 603.8 201C553.7 201 503.3 201 453 201C402.7 201 352.3 201 302 201C251.7 201 201.3 201 151 201C100.7 201 50.3 201 25.2 201L0 201Z" fill="#beab46"></path><path d="M0 131L25.2 126.8C50.3 122.7 100.7 114.3 151 119.2C201.3 124 251.7 142 302 140.7C352.3 139.3 402.7 118.7 453 114.3C503.3 110 553.7 122 603.8 127C654 132 704 130 754.2 129.8C804.3 129.7 854.7 131.3 905 135C955.3 138.7 1005.7 144.3 1056 137.7C1106.3 131 1156.7 112 1207 112C1257.3 112 1307.7 131 1332.8 140.5L1358 150L1358 201L1332.8 201C1307.7 201 1257.3 201 1207 201C1156.7 201 1106.3 201 1056 201C1005.7 201 955.3 201 905 201C854.7 201 804.3 201 754.2 201C704 201 654 201 603.8 201C553.7 201 503.3 201 453 201C402.7 201 352.3 201 302 201C251.7 201 201.3 201 151 201C100.7 201 50.3 201 25.2 201L0 201Z" fill="#86b463"></path><path d="M0 155L25.2 159.3C50.3 163.7 100.7 172.3 151 174.8C201.3 177.3 251.7 173.7 302 170.7C352.3 167.7 402.7 165.3 453 159.7C503.3 154 553.7 145 603.8 147.3C654 149.7 704 163.3 754.2 166.7C804.3 170 854.7 163 905 158.2C955.3 153.3 1005.7 150.7 1056 154.2C1106.3 157.7 1156.7 167.3 1207 170.5C1257.3 173.7 1307.7 170.3 1332.8 168.7L1358 167L1358 201L1332.8 201C1307.7 201 1257.3 201 1207 201C1156.7 201 1106.3 201 1056 201C1005.7 201 955.3 201 905 201C854.7 201 804.3 201 754.2 201C704 201 654 201 603.8 201C553.7 201 503.3 201 453 201C402.7 201 352.3 201 302 201C251.7 201 201.3 201 151 201C100.7 201 50.3 201 25.2 201L0 201Z" fill="#51b58d"></path><path d="M0 181L25.2 182.3C50.3 183.7 100.7 186.3 151 186.7C201.3 187 251.7 185 302 184.7C352.3 184.3 402.7 185.7 453 188.2C503.3 190.7 553.7 194.3 603.8 193.3C654 192.3 704 186.7 754.2 183.5C804.3 180.3 854.7 179.7 905 174.7C955.3 169.7 1005.7 160.3 1056 159.3C1106.3 158.3 1156.7 165.7 1207 173.3C1257.3 181 1307.7 189 1332.8 193L1358 197L1358 201L1332.8 201C1307.7 201 1257.3 201 1207 201C1156.7 201 1106.3 201 1056 201C1005.7 201 955.3 201 905 201C854.7 201 804.3 201 754.2 201C704 201 654 201 603.8 201C553.7 201 503.3 201 453 201C402.7 201 352.3 201 302 201C251.7 201 201.3 201 151 201C100.7 201 50.3 201 25.2 201L0 201Z" fill="#2fb1b1"></path></svg>