<svg id="visual" viewBox="0 0 1858 150" width="1858" height="150" xmlns="http://www.w3.org/2000/svg" xmlns:xlink="http://www.w3.org/1999/xlink" version="1.1"><path d="M0 62L23.8 57C47.7 52 95.3 42 143 36.7C190.7 31.3 238.3 30.7 286 30C333.7 29.3 381.3 28.7 429 34C476.7 39.3 524.3 50.7 572 57.5C619.7 64.3 667.3 66.7 715 66.3C762.7 66 810.3 63 857.8 57C905.3 51 952.7 42 1000.2 38.5C1047.7 35 1095.3 37 1143 43C1190.7 49 1238.3 59 1286 59.5C1333.7 60 1381.3 51 1429 46.3C1476.7 41.7 1524.3 41.3 1572 44.2C1619.7 47 1667.3 53 1715 54.5C1762.7 56 1810.3 53 1834.2 51.5L1858 50L1858 151L1834.2 151C1810.3 151 1762.7 151 1715 151C1667.3 151 1619.7 151 1572 151C1524.3 151 1476.7 151 1429 151C1381.3 151 1333.7 151 1286 151C1238.3 151 1190.7 151 1143 151C1095.3 151 1047.7 151 1000.2 151C952.7 151 905.3 151 857.8 151C810.3 151 762.7 151 715 151C667.3 151 619.7 151 572 151C524.3 151 476.7 151 429 151C381.3 151 333.7 151 286 151C238.3 151 190.7 151 143 151C95.3 151 47.7 151 23.8 151L0 151Z" fill="#2c5a4f"></path><path d="M0 93L23.8 92.2C47.7 91.3 95.3 89.7 143 83.8C190.7 78 238.3 68 286 66.5C333.7 65 381.3 72 429 73.2C476.7 74.3 524.3 69.7 572 70C619.7 70.3 667.3 75.7 715 76.2C762.7 76.7 810.3 72.3 857.8 72.5C905.3 72.7 952.7 77.3 1000.2 78C1047.7 78.7 1095.3 75.3 1143 71.2C1190.7 67 1238.3 62 1286 60.3C1333.7 58.7 1381.3 60.3 1429 64.8C1476.7 69.3 1524.3 76.7 1572 77.5C1619.7 78.3 1667.3 72.7 1715 73.8C1762.7 75 1810.3 83 1834.2 87L1858 91L1858 151L1834.2 151C1810.3 151 1762.7 151 1715 151C1667.3 151 1619.7 151 1572 151C1524.3 151 1476.7 151 1429 151C1381.3 151 1333.7 151 1286 151C1238.3 151 1190.7 151 1143 151C1095.3 151 1047.7 151 1000.2 151C952.7 151 905.3 151 857.8 151C810.3 151 762.7 151 715 151C667.3 151 619.7 151 572 151C524.3 151 476.7 151 429 151C381.3 151 333.7 151 286 151C238.3 151 190.7 151 143 151C95.3 151 47.7 151 23.8 151L0 151Z" fill="#336b61"></path><path d="M0 93L23.8 94.2C47.7 95.3 95.3 97.7 143 96C190.7 94.3 238.3 88.7 286 85C333.7 81.3 381.3 79.7 429 80.8C476.7 82 524.3 86 572 85.5C619.7 85 667.3 80 715 81.5C762.7 83 810.3 91 857.8 96C905.3 101 952.7 103 1000.2 104.3C1047.7 105.7 1095.3 106.3 1143 101.5C1190.7 96.7 1238.3 86.3 1286 84C1333.7 81.7 1381.3 87.3 1429 91.5C1476.7 95.7 1524.3 98.3 1572 98.2C1619.7 98 1667.3 95 1715 90C1762.7 85 1810.3 78 1834.2 74.5L1858 71L1858 151L1834.2 151C1810.3 151 1762.7 151 1715 151C1667.3 151 1619.7 151 1572 151C1524.3 151 1476.7 151 1429 151C1381.3 151 1333.7 151 1286 151C1238.3 151 1190.7 151 1143 151C1095.3 151 1047.7 151 1000.2 151C952.7 151 905.3 151 857.8 151C810.3 151 762.7 151 715 151C667.3 151 619.7 151 572 151C524.3 151 476.7 151 429 151C381.3 151 333.7 151 286 151C238.3 151 190.7 151 143 151C95.3 151 47.7 151 23.8 151L0 151Z" fill="#397d75"></path><path d="M0 98L23.8 100.5C47.7 103 95.3 108 143 111.7C190.7 115.3 238.3 117.7 286 115.7C333.7 113.7 381.3 107.3 429 104.2C476.7 101 524.3 101 572 104.5C619.7 108 667.3 115 715 113.3C762.7 111.7 810.3 101.3 857.8 99C905.3 96.7 952.7 102.3 1000.2 105.5C1047.7 108.7 1095.3 109.3 1143 109.3C1190.7 109.3 1238.3 108.7 1286 108.7C1333.7 108.7 1381.3 109.3 1429 107.7C1476.7 106 1524.3 102 1572 102.5C1619.7 103 1667.3 108 1715 110.5C1762.7 113 1810.3 113 1834.2 113L1858 113L1858 151L1834.2 151C1810.3 151 1762.7 151 1715 151C1667.3 151 1619.7 151 1572 151C1524.3 151 1476.7 151 1429 151C1381.3 151 1333.7 151 1286 151C1238.3 151 1190.7 151 1143 151C1095.3 151 1047.7 151 1000.2 151C952.7 151 905.3 151 857.8 151C810.3 151 762.7 151 715 151C667.3 151 619.7 151 572 151C524.3 151 476.7 151 429 151C381.3 151 333.7 151 286 151C238.3 151 190.7 151 143 151C95.3 151 47.7 151 23.8 151L0 151Z" fill="#408f89"></path><path d="M0 120L23.8 120.3C47.7 120.7 95.3 121.3 143 120.7C190.7 120 238.3 118 286 117C333.7 116 381.3 116 429 115.3C476.7 114.7 524.3 113.3 572 116.7C619.7 120 667.3 128 715 131.5C762.7 135 810.3 134 857.8 130.2C905.3 126.3 952.7 119.7 1000.2 117.5C1047.7 115.3 1095.3 117.7 1143 118.3C1190.7 119 1238.3 118 1286 120.3C1333.7 122.7 1381.3 128.3 1429 127.8C1476.7 127.3 1524.3 120.7 1572 120.2C1619.7 119.7 1667.3 125.3 1715 126.5C1762.7 127.7 1810.3 124.3 1834.2 122.7L1858 121L1858 151L1834.2 151C1810.3 151 1762.7 151 1715 151C1667.3 151 1619.7 151 1572 151C1524.3 151 1476.7 151 1429 151C1381.3 151 1333.7 151 1286 151C1238.3 151 1190.7 151 1143 151C1095.3 151 1047.7 151 1000.2 151C952.7 151 905.3 151 857.8 151C810.3 151 762.7 151 715 151C667.3 151 619.7 151 572 151C524.3 151 476.7 151 429 151C381.3 151 333.7 151 286 151C238.3 151 190.7 151 143 151C95.3 151 47.7 151 23.8 151L0 151Z" fill="#46a29f"></path></svg>